<svg xmlns="http://www.w3.org/2000/svg" width="68" height="60" viewBox="0 0 68 60" fill="none">
  <path d="M61.2503 46.0627C58.9914 46.0693 56.8868 47.21 55.6482 49.0991V43.8219C56.8858 43.8219 57.889 42.8186 57.889 41.581V37.0993C57.8911 36.9681 57.8643 36.8381 57.8106 36.7184C57.8106 36.7184 57.8106 36.7184 57.8106 36.6512C57.7882 36.5823 57.7541 36.5179 57.7098 36.4607C55.3705 33.3431 51.7029 31.5051 47.8052 31.4972H38.8418C36.9855 31.4972 35.4806 33.0021 35.4806 34.8585V38.9816C30.5395 35.2506 22.0355 28.5393 15.313 23.1389V16.9317C15.313 16.3129 14.8113 15.8113 14.1925 15.8113C13.5737 15.8113 13.0721 16.3129 13.0721 16.9317V21.3462L7.32434 16.7412C7.41808 16.44 7.46715 16.1267 7.46999 15.8113V10.2092C7.46999 8.3528 5.96509 6.8479 4.10872 6.8479C2.25235 6.8479 0.747452 8.3528 0.747452 10.2092V15.8113C0.747452 17.6677 2.25235 19.1726 4.10872 19.1726C4.79411 19.1709 5.46263 18.9598 6.02464 18.5675C12.187 23.531 28.8813 36.8977 35.503 41.7939C35.6123 42.9391 36.571 43.8156 37.7214 43.8219V45.0879L35.3797 44.5277C33.6989 42.6715 31.3182 41.603 28.8141 41.581L7.29072 24.9539L2.7194 21.4134C2.23022 21.0372 1.5289 21.1273 1.1508 21.6151C0.962974 21.8514 0.878471 22.1536 0.916435 22.4531C0.9544 22.7526 1.11162 23.0241 1.35248 23.2061L4.71375 25.7494C2.28243 27.9007 1.97992 31.4972 1.86788 33.57C1.33007 39.3402 2.24882 44.2364 4.56809 47.9786C8.59042 54.4659 16.0412 56.0233 21.8002 56.1465C24.4997 59.5481 29.2644 60.4963 33.0605 58.3874H57.5865C58.6707 59.1137 59.9453 59.5035 61.2503 59.5078C64.9631 59.5078 67.9728 56.498 67.9728 52.7853C67.9728 49.0725 64.9631 46.0627 61.2503 46.0627ZM2.9883 15.8113V10.2092C2.9883 9.59038 3.48993 9.08875 4.10872 9.08875C4.72751 9.08875 5.22915 9.59038 5.22915 10.2092V15.8113C5.22915 16.4301 4.72751 16.9317 4.10872 16.9317C3.48993 16.9317 2.9883 16.4301 2.9883 15.8113ZM54.2701 51.2951L54.6846 51.3959C54.5876 51.8529 54.535 52.3182 54.5278 52.7853C54.5299 53.9659 54.8429 55.1252 55.4353 56.1465H35.7271C37.7885 53.6334 38.3088 50.1935 37.0828 47.1831C41.2059 48.2251 49.2282 50.1299 54.2701 51.2951ZM55.6482 41.581H37.7214V38.2198H55.6482V41.581ZM37.7214 34.8585C37.7214 34.2397 38.223 33.7381 38.8418 33.7381H47.8052C50.1094 33.7398 52.3435 34.5306 54.1356 35.9789H37.7214V34.8585ZM39.9623 43.8219H53.4073V48.7965C49.2954 47.8442 43.8613 46.5557 39.9623 45.6258V43.8219ZM6.47282 46.8022C4.42244 43.4409 3.59333 39.0825 4.0415 33.7493C4.25438 31.2507 4.64653 28.5169 6.48402 27.1724L25.8001 42.0852C22.2041 43.3423 19.7955 46.735 19.7946 50.5444C19.7982 51.6968 20.0226 52.8378 20.4557 53.9057C15.5034 53.5247 9.71084 51.9449 6.47282 46.8022ZM23.2792 54.4099L23.1895 54.2978C21.8296 52.2827 21.6637 49.6903 22.7556 47.5182C23.8474 45.3461 26.027 43.9327 28.4555 43.8219C28.5561 43.833 28.6575 43.833 28.758 43.8219C31.9466 43.8171 34.6998 46.053 35.3495 49.1747C35.9992 52.2963 34.3666 55.445 31.4409 56.7127C28.5152 57.9805 25.1014 57.0186 23.268 54.4099L23.2792 54.4099ZM61.2503 57.267C58.7751 57.267 56.7686 55.2604 56.7686 52.7853C56.7686 50.3101 58.7751 48.3036 61.2503 48.3036C63.7255 48.3036 65.732 50.3101 65.732 52.7853C65.732 55.2604 63.7255 57.267 61.2503 57.267Z" fill="#F94A23"/>
  <path d="M15.6379 48.4716C13.7489 47.895 12.0752 46.7675 10.8313 45.2336C8.59041 42.3205 8.2991 38.0068 8.45596 34.9145C8.48999 34.2957 8.01595 33.7665 7.39716 33.7324C6.77836 33.6984 6.24915 34.1724 6.21511 34.7912C6.03584 38.2757 6.38317 43.1384 9.04978 46.6005C10.5745 48.4659 12.6173 49.8382 14.9208 50.5444C15.035 50.5892 15.1567 50.612 15.2793 50.6116C15.8981 50.7106 16.48 50.2893 16.579 49.6705C16.678 49.0517 16.2567 48.4698 15.6379 48.3708L15.6379 48.4716Z" fill="#F94A23"/>
  <path d="M28.758 47.1831C26.9016 47.1831 25.3968 48.688 25.3968 50.5444C25.3968 52.4007 26.9016 53.9056 28.758 53.9056C30.6144 53.9056 32.1193 52.4007 32.1193 50.5444C32.1193 48.688 30.6144 47.1831 28.758 47.1831ZM28.758 51.6648C28.1392 51.6648 27.6376 51.1632 27.6376 50.5444C27.6376 49.9256 28.1392 49.424 28.758 49.424C29.3768 49.424 29.8784 49.9256 29.8784 50.5444C29.8784 51.1632 29.3768 51.6648 28.758 51.6648Z" fill="#F94A23"/>
  <circle cx="61.2503" cy="52.7852" r="1.12042" fill="#F94A23"/>
  <path d="M25.3968 2.36621H26.5172C27.136 2.36621 27.6376 1.86458 27.6376 1.24579C27.6376 0.626997 27.136 0.125366 26.5172 0.125366H25.3968C24.778 0.125366 24.2763 0.626996 24.2763 1.24579C24.2763 1.86458 24.778 2.36621 25.3968 2.36621Z" fill="#F94A23"/>
  <path d="M43.6036 10.8141C43.815 11.0816 44.1367 11.2383 44.4776 11.2399C44.7355 11.2378 44.9848 11.1468 45.1834 10.9822C45.6569 10.5908 45.7269 9.89107 45.3403 9.41362C44.8361 8.78618 44.2983 8.18116 43.7605 7.60974C43.5501 7.39763 43.2637 7.27832 42.965 7.27832C42.6662 7.27832 42.3799 7.39763 42.1695 7.60974C41.9574 7.82012 41.8381 8.10649 41.8381 8.40524C41.8381 8.70399 41.9574 8.99036 42.1695 9.20074C42.6513 9.69372 43.1331 10.2091 43.6036 10.8141Z" fill="#F94A23"/>
  <path d="M48.6792 20.5731C48.892 21.279 49.0825 22.0072 49.2506 22.7243C49.3725 23.241 49.8403 23.6012 50.371 23.587H50.6287C51.2277 23.443 51.5981 22.8424 51.4578 22.2425C51.2785 21.4806 51.0769 20.7075 50.8416 20.0017C50.7455 19.5959 50.4321 19.2771 50.028 19.1741C49.624 19.0712 49.1962 19.2011 48.9176 19.5113C48.639 19.8216 48.5558 20.2609 48.7016 20.6515L48.6792 20.5731Z" fill="#F94A23"/>
  <path d="M47.0881 16.4388C47.2735 16.8279 47.6656 17.0762 48.0965 17.0774C48.2624 17.0775 48.4264 17.0432 48.5783 16.9766C49.1382 16.7135 49.379 16.0464 49.1161 15.4864C48.78 14.7581 48.4102 14.0523 47.9957 13.3688C47.6863 12.8305 46.9991 12.6449 46.4607 12.9543C45.9224 13.2637 45.7368 13.9509 46.0462 14.4893C46.4271 15.1055 46.7744 15.8113 47.0882 16.4388H47.0881Z" fill="#F94A23"/>
  <path d="M30.8308 2.92643C31.5479 3.07208 32.2537 3.26256 32.9484 3.47544C33.0446 3.49184 33.1425 3.49561 33.2397 3.48664C33.7274 3.48472 34.1578 3.16757 34.3041 2.70235C34.3955 2.41857 34.3701 2.11007 34.2334 1.84511C34.0967 1.58015 33.8601 1.3806 33.5758 1.29061C32.814 1.05532 32.0409 0.853647 31.2454 0.685584C30.6425 0.561138 30.0521 0.946371 29.9233 1.54831C29.8471 1.85253 29.9019 2.17475 30.0744 2.43667C30.2469 2.69859 30.5212 2.87624 30.8308 2.92643H30.8308Z" fill="#F94A23"/>
  <path d="M36.9595 5.18974C37.5982 5.54827 38.2144 5.92922 38.8194 6.31016C39.0068 6.44093 39.2296 6.5113 39.4581 6.51184C39.9469 6.51068 40.3785 6.19276 40.5246 5.72628C40.6707 5.2598 40.4975 4.75245 40.0967 4.47267C39.4357 4.0133 38.741 3.58754 38.0463 3.19539C37.7864 3.05114 37.4797 3.01614 37.1939 3.0981C36.9081 3.18006 36.6666 3.37225 36.5226 3.63236C36.3674 3.89535 36.3264 4.21027 36.4089 4.50426C36.4913 4.79824 36.6902 5.04583 36.9595 5.18975V5.18974Z" fill="#F94A23"/>
  <path d="M49.9789 27.1164V27.643V28.2032C49.9962 28.5005 50.1312 28.7787 50.354 28.9764C50.5769 29.174 50.8692 29.2747 51.1665 29.2564H51.2337C51.5332 29.2391 51.8132 29.1026 52.0111 28.8773C52.2091 28.6519 52.3084 28.3567 52.2869 28.0575V27.5085C52.2869 27.3404 52.2869 27.1388 52.2869 26.9259C52.2658 26.6107 52.1127 26.3191 51.8652 26.1228C51.6178 25.9266 51.2989 25.8439 50.9872 25.8951C50.3717 25.9542 49.9204 26.5008 49.9789 27.1164Z" fill="#F94A23"/>
  <path d="M23.1559 6.8479H24.2763C24.8951 6.86337 25.4093 6.37428 25.4248 5.75549C25.4402 5.1367 24.9511 4.62253 24.3324 4.60706H23.1559C22.5371 4.60706 22.0355 5.10869 22.0355 5.72748C22.0355 6.34627 22.5371 6.8479 23.1559 6.8479Z" fill="#F94A23"/>
  <path d="M34.0688 8.66294C33.7269 9.1713 33.8566 9.86007 34.3602 10.2091C34.9465 10.6271 35.5042 11.0837 36.0296 11.576C36.2379 11.7654 36.5099 11.8694 36.7915 11.8674C37.102 11.8664 37.3982 11.7365 37.6094 11.5088C38.0438 11.0718 38.0438 10.366 37.6094 9.92902C37.0163 9.37665 36.3875 8.86389 35.7271 8.39404C35.4786 8.19028 35.1545 8.10303 34.8373 8.15447C34.5201 8.20591 34.2402 8.39109 34.0688 8.66294V8.66294Z" fill="#F94A23"/>
  <path d="M43.8165 23.587C44.4084 23.4233 44.7581 22.8136 44.6008 22.2201C44.3991 21.447 44.1526 20.6851 43.8949 19.9792C43.6846 19.3945 43.04 19.091 42.4552 19.3014C41.8705 19.5118 41.567 20.1564 41.7774 20.7411C42.0238 21.4246 42.2479 22.1304 42.4384 22.8363C42.5736 23.3396 43.038 23.6833 43.5588 23.6654C43.6481 23.6521 43.735 23.6257 43.8165 23.587Z" fill="#F94A23"/>
  <path d="M28.5115 7.50891C29.2079 7.68697 29.8927 7.90774 30.5619 8.16996C30.6934 8.2238 30.8344 8.25048 30.9765 8.24839C31.5129 8.24437 31.9712 7.86075 32.0695 7.33344C32.1679 6.80614 31.8787 6.28309 31.3798 6.08598C30.6285 5.79389 29.8617 5.54328 29.083 5.33529C28.6947 5.23322 28.2814 5.34604 27.9989 5.63127C27.7164 5.91649 27.6075 6.33078 27.7132 6.71808C27.8189 7.10538 28.1233 7.40684 28.5116 7.50891L28.5115 7.50891Z" fill="#F94A23"/>
  <path d="M39.0883 13.3016C38.593 13.6653 38.483 14.3601 38.8419 14.859C39.2564 15.4416 39.6373 16.069 39.9623 16.7077C40.1603 17.06 40.5328 17.2784 40.937 17.2791C41.1281 17.2787 41.3164 17.2326 41.486 17.1447C41.7473 16.9987 41.9393 16.7543 42.0192 16.466C42.0992 16.1777 42.0605 15.8693 41.9118 15.6097C41.5197 14.9038 41.0827 14.2203 40.6457 13.5817C40.2925 13.0751 39.5959 12.9498 39.0883 13.3016Z" fill="#F94A23"/>
  <path d="M44.444 29.2563H44.5C45.0968 29.2265 45.5651 28.7335 45.5644 28.1359C45.5644 27.7662 45.5644 27.374 45.4748 27.0155C45.4465 26.7177 45.3003 26.4436 45.0688 26.2542C44.8373 26.0649 44.5398 25.9759 44.2423 26.0071C43.6312 26.0719 43.1864 26.6167 43.2451 27.2284C43.2451 27.5981 43.3011 27.9567 43.3235 28.2928C43.4022 28.8497 43.8816 29.2619 44.444 29.2563V29.2563Z" fill="#F94A23"/>
  <path d="M37.7214 29.2564H37.7886C38.0881 29.2392 38.3681 29.1026 38.566 28.8773C38.764 28.652 38.8633 28.3567 38.8418 28.0575C38.8418 28.0575 38.8418 27.6206 38.7074 26.8699C38.6208 26.2511 38.0489 25.8197 37.4301 25.9063C36.8113 25.993 36.3799 26.5648 36.4665 27.1836C36.5562 27.7999 36.5786 28.1808 36.5786 28.2032C36.6146 28.8043 37.1193 29.2695 37.7214 29.2564Z" fill="#F94A23"/>
  <path d="M26.8645 10.0412C26.2798 9.83695 25.6402 10.1455 25.436 10.7302C25.2318 11.315 25.5403 11.9546 26.125 12.1588C26.7865 12.3837 27.4275 12.6648 28.041 12.9991C28.5857 13.2883 29.2617 13.083 29.5535 12.5397C29.8446 11.998 29.6445 11.3229 29.1054 11.0271C28.3857 10.6397 27.6364 10.31 26.8645 10.0412L26.8645 10.0412Z" fill="#F94A23"/>
  <path d="M32.9708 13.9962C32.6946 13.7059 32.2846 13.5851 31.8952 13.6792C31.5057 13.7733 31.1961 14.068 31.0829 14.4523C30.9696 14.8366 31.07 15.2521 31.3462 15.5423C31.8325 16.0512 32.2818 16.5941 32.6907 17.1669C32.8999 17.4607 33.2377 17.6359 33.5983 17.6375C33.8349 17.634 34.0651 17.5599 34.2593 17.4246C34.5005 17.2497 34.6621 16.9859 34.7084 16.6915C34.7547 16.3972 34.6818 16.0965 34.5058 15.8561C34.0367 15.2021 33.5239 14.5807 32.9708 13.9962Z" fill="#F94A23"/>
  <path d="M35.4806 22.9484C35.6367 23.4295 36.0958 23.7463 36.601 23.7215C36.712 23.743 36.8261 23.743 36.9371 23.7215C37.5234 23.534 37.8485 22.9086 37.6654 22.321C37.4189 21.5479 37.1388 20.8084 36.8475 20.0802C36.6062 19.5078 35.9465 19.2394 35.3741 19.4807C34.8017 19.7221 34.5334 20.3817 34.7747 20.9541C35.0436 21.5591 35.2901 22.2426 35.4806 22.9484Z" fill="#F94A23"/>
  <path d="M20.9151 11.3296H21.9683H22.0355C22.6543 11.3482 23.171 10.8616 23.1895 10.2428C23.2081 9.62399 22.7215 9.10731 22.1027 9.08875C21.7106 9.08875 21.3184 9.08875 20.9151 9.08875C20.2963 9.08875 19.7946 9.59038 19.7946 10.2092C19.7946 10.828 20.2963 11.3296 20.9151 11.3296Z" fill="#F94A23"/>
</svg>