<svg xmlns="http://www.w3.org/2000/svg" width="53" height="49" viewBox="0 0 53 49" fill="none">
  <path d="M21.3407 5.59677C16.764 1.02238 7.80788 0.491943 1.46848 0.491943C0.811936 0.491943 0.279053 1.02471 0.279053 1.68126C0.279053 8.02066 0.807141 16.9768 5.38387 21.5536C7.31548 23.4852 10.2771 24.3487 13.2124 24.3487C16.4024 24.3487 19.5638 23.3282 21.3407 21.5513C24.7495 18.1424 25.3752 9.62879 21.3407 5.59677ZM19.659 19.8718C17.1137 22.4146 10.0463 22.85 7.06816 19.8718C3.37388 16.1776 2.73395 8.67252 2.66493 2.87782C8.45963 2.94684 15.9647 3.58665 19.6589 7.28094C22.6372 10.2591 22.2019 17.3289 19.659 19.8718Z" fill="#F94A23"/>
  <path d="M51.4774 5.19714C45.138 5.19714 36.1819 5.72523 31.605 10.302C27.5707 14.334 28.1962 22.8476 31.605 26.2565C33.382 28.0311 36.5411 29.0516 39.731 29.0516C42.6664 29.0516 45.6256 28.1904 47.5619 26.2589C52.1363 21.6822 52.6666 12.7261 52.6666 6.38657C52.6668 5.73001 52.1339 5.19714 51.4774 5.19714ZM45.8753 24.5746C42.8971 27.5528 35.8274 27.1175 33.2845 24.5746C30.7416 22.0318 30.3064 14.962 33.2845 11.9838C36.9788 8.28952 44.4838 7.6497 50.2785 7.58067C50.2095 13.3777 49.5696 20.8828 45.8753 24.5746Z" fill="#F94A23"/>
  <path d="M42.8878 15.4925C42.6071 14.8954 41.803 14.6909 41.2107 14.9667C32.0881 19.2557 27.6065 26.7345 25.5702 34.4227C23.0511 18.0757 15.7649 13.0922 12.6749 10.9775C12.2895 10.7135 11.9898 10.5208 11.8233 10.3567C11.3594 9.89282 10.6053 9.89282 10.1415 10.3567C9.67761 10.8205 9.67761 11.5746 10.1415 12.0385C10.377 12.2717 10.7837 12.5642 11.3332 12.94C14.8158 15.3212 24.0668 21.6511 24.0668 46.8781C24.0668 47.5346 24.5997 48.0675 25.2562 48.0675C25.9128 48.0675 26.4457 47.5346 26.4457 46.8805C26.4457 36.6875 29.1837 23.2498 42.2241 17.122C42.2241 17.1197 42.4168 17.0292 42.4168 17.0292C43.0091 16.7485 43.1684 16.0871 42.8878 15.4925Z" fill="#F94A23"/>
</svg>