<svg xmlns="http://www.w3.org/2000/svg" width="61" height="59" viewBox="0 0 61 59" fill="none">
  <path d="M51.8592 35.6809C60.1046 33.0061 60.2755 23.1217 60.2755 22.7094C60.2755 22.4918 60.205 22.2801 60.0744 22.1061C59.8331 21.7642 53.8903 13.8707 45.6449 16.5555C43.3708 17.3225 41.2426 18.4682 39.3502 19.9442C40.1766 17.6882 40.6118 15.3078 40.6373 12.9054C40.6373 4.23763 31.2958 1.0199 30.9037 0.889177C30.695 0.818679 30.4689 0.818679 30.2601 0.889177C29.868 1.0199 20.5265 4.23763 20.5265 12.9557C20.5545 15.3578 20.9897 17.7378 21.8136 19.9944C19.9183 18.4993 17.783 17.3365 15.4988 16.5555C7.26343 13.8707 1.33074 21.7642 1.08941 22.1061C0.958873 22.2801 0.888306 22.4918 0.888306 22.7094C0.888306 23.1217 1.05925 33.0061 9.30468 35.6809C11.5957 36.4023 13.9935 36.7254 16.3937 36.6361C14.4001 37.9723 12.6488 39.6386 11.2152 41.5633C6.11712 48.6021 11.7884 56.6464 12.0397 57.0084C12.1609 57.1895 12.3428 57.3215 12.5526 57.3804C14.1643 57.8419 15.8334 58.0721 17.5099 58.0642C24.6492 58.0642 28.5708 53.7907 30.5819 47.0033C32.6433 53.8309 36.5448 58.0642 43.6539 58.0642C45.3275 58.0679 46.9932 57.8343 48.6012 57.3704C48.811 57.3114 48.9928 57.1795 49.114 56.9983C49.3654 56.6565 55.0367 48.5719 49.9386 41.5532C48.5029 39.6338 46.7559 37.9684 44.7701 36.6261C47.1697 36.7164 49.5671 36.3967 51.8592 35.6809H51.8592ZM30.5819 2.93043C32.1103 3.53375 38.6262 6.50009 38.6262 12.9154C38.6262 18.7174 35.3482 24.7406 31.7081 29.2253C31.5271 29.1549 31.5875 30.1303 31.5875 17.9432C31.5875 17.3878 31.1373 16.9376 30.5819 16.9376C30.0266 16.9376 29.5764 17.3878 29.5764 17.9432V28.4209C28.3561 26.5983 26.9872 24.8797 25.4838 23.2826C23.6659 20.121 22.6541 16.5606 22.5376 12.9154C22.5376 6.52021 29.0535 3.54381 30.5819 2.93043V2.93043ZM9.92812 33.7704C3.8446 31.7593 3.02006 24.6702 2.88934 23.0312C3.89488 21.7642 8.76169 16.4851 14.8653 18.466C20.3958 20.2659 25.1017 25.2333 28.239 30.1001C28.1385 30.2309 29.0032 30.442 17.4797 26.7115C16.9598 26.5631 16.4156 26.8524 16.2478 27.3665C16.0801 27.8805 16.3489 28.4351 16.8563 28.622L26.8212 31.8598C24.7046 32.4586 22.6426 33.2356 20.6572 34.1826C17.1009 34.9238 13.4171 34.7823 9.92811 33.7704H9.92812ZM25.8559 52.2019C22.1052 57.3805 15.0865 55.9626 13.4877 55.5604C12.6029 54.1627 9.08347 47.9183 12.8442 42.7498C16.2228 38.1042 22.4572 35.0977 28.0379 33.6296C28.1284 33.7704 28.591 33.0464 21.4918 42.8202C21.226 43.269 21.3475 43.8465 21.7716 44.1502C22.1957 44.4539 22.7816 44.3828 23.1208 43.9866L29.2848 35.4999C29.1987 37.6862 29.2962 39.8759 29.5764 42.046C29.1998 45.6879 27.9211 49.1785 25.8559 52.2019V52.2019ZM30.5819 33.0263C30.0266 33.0263 29.5764 32.5761 29.5764 32.0207C29.5764 31.4654 30.0266 31.0152 30.5819 31.0152C31.1373 31.0152 31.5875 31.4654 31.5875 32.0207C31.5875 32.5761 31.1373 33.0263 30.5819 33.0263ZM48.3197 42.7498C52.0804 47.9183 48.561 54.1627 47.6761 55.5604C46.0773 55.9626 39.0586 57.3804 35.308 52.2019C31.8891 47.496 31.0143 40.7287 31.2858 34.9368C31.4467 34.9368 30.8635 34.1625 38.0028 43.9866C38.1965 44.3137 38.558 44.5036 38.9372 44.4774C39.3164 44.4512 39.6485 44.2135 39.7954 43.8629C39.9423 43.5124 39.879 43.1089 39.6318 42.8202L33.498 34.3335C35.5763 35.1041 37.7155 35.6995 39.8932 36.1133C43.2005 37.6063 46.0931 39.8845 48.3197 42.7498L48.3197 42.7498ZM33.5985 32.2118C33.5985 32.0408 32.8444 32.3525 44.2975 28.622C44.8049 28.4351 45.0737 27.8805 44.9059 27.3665C44.7382 26.8524 44.194 26.5631 43.674 26.7115L33.7091 29.9091C35.0655 28.1787 36.2763 26.339 37.3291 24.4088C39.7782 21.7175 42.8466 19.6639 46.2683 18.4258C52.3016 16.4147 57.1986 21.724 58.2443 22.991C58.1438 24.6401 57.3393 31.7492 51.2056 33.7301C45.7254 35.5703 39.0284 34.3234 33.5985 32.2118H33.5985Z" fill="#F94A23"/>
</svg>