<svg xmlns="http://www.w3.org/2000/svg" width="49" height="57" viewBox="0 0 49 57" fill="none">
  <path d="M39.6933 13.6002C39.2015 10.1984 37.5675 7.07026 35.0263 4.70355C32.2163 2.08655 28.553 0.645264 24.711 0.645264C20.8691 0.645264 17.2057 2.08655 14.3956 4.70355C11.8544 7.07026 10.2205 10.1984 9.72864 13.6002C4.25509 15.9903 0.645325 21.4425 0.645325 27.4781C0.645325 35.8258 7.43663 42.617 15.7842 42.617C18.3569 42.617 20.8642 41.9629 23.0842 40.7402V56.1669H26.3374V40.7402C28.5574 41.9629 31.0647 42.617 33.6374 42.617C41.9851 42.617 48.7763 35.8257 48.7763 27.4781C48.7766 21.4425 45.1668 15.9902 39.6933 13.6002ZM33.6376 39.3638C30.9837 39.3638 28.4184 38.4777 26.3376 36.8564V26.907L33.6334 23.0709L32.1193 20.1915L26.3376 23.2315V16.8279H23.0844V30.442L17.3027 27.402L15.7886 30.2814L23.0844 34.1175V36.8564C21.0036 38.4777 18.4384 39.3638 15.7844 39.3638C9.23057 39.3638 3.89877 34.0318 3.89877 27.4781C3.89877 22.467 7.06804 17.9679 11.7851 16.2826L12.7801 15.9271L12.8597 14.8735C13.0851 11.8948 14.4179 9.12846 16.6129 7.08425C18.8187 5.02984 21.6947 3.89848 24.711 3.89848C27.7273 3.89848 30.6034 5.02984 32.8093 7.08414C35.0042 9.12836 36.337 11.8946 36.5624 14.8734L36.642 15.927L37.637 16.2825C42.3541 17.9678 45.5234 22.4669 45.5234 27.478C45.5234 34.0318 40.1915 39.3638 33.6376 39.3638Z" fill="#F94A23"/>
</svg>