<svg xmlns="http://www.w3.org/2000/svg" width="58" height="58" viewBox="0 0 58 58" fill="none">
  <path d="M57.1403 32.5446C57.1403 28.5354 55.1965 24.7068 51.9406 22.3035C51.2767 21.8118 50.4535 21.542 49.6239 21.542C48.5852 21.542 47.6119 21.9573 46.8974 22.6635C46.7639 22.5521 46.6423 22.4296 46.5042 22.3237C45.9931 21.9333 45.3799 21.7013 44.7501 21.6055L45.1562 17.1406C45.1654 17.0338 45.17 16.926 45.17 16.8183C45.17 14.8533 43.5715 13.2548 41.6065 13.2548H41.3671C39.4021 13.2548 37.8036 14.8533 37.8036 16.8183C37.8036 16.926 37.8082 17.0338 37.8183 17.1415L38.2262 21.6258C37.6424 21.7363 37.078 21.9619 36.601 22.3173C36.4362 22.4407 36.2898 22.5825 36.1314 22.7123C36.0495 22.6276 35.9629 22.5484 35.8736 22.472C35.9261 22.1654 35.962 21.8551 35.962 21.542C35.962 20.3726 35.5974 19.2538 34.9215 18.3192C35.5974 17.3846 35.962 16.2667 35.962 15.0964C35.962 11.9436 33.2944 9.38838 30.1159 9.58175C29.5247 7.88748 28.1463 6.61034 26.452 6.11771C25.3305 4.71902 23.6399 3.94279 21.8287 4.05697C21.0663 1.87191 19.0018 0.363647 16.6253 0.363647C14.6317 0.363647 12.8168 1.42993 11.8389 3.1288C9.40068 3.21075 7.29298 4.93172 6.68893 7.27607C3.83814 8.33959 1.8925 11.0992 1.8925 14.1756C1.8925 16.6424 3.10611 18.8975 5.11437 20.2602C4.81143 20.9517 4.65489 21.6994 4.65489 22.4628C4.65489 24.1202 5.39153 25.6607 6.65578 26.704C6.54989 27.1312 6.49648 27.5612 6.49648 27.9876C6.49648 30.8089 8.62353 33.144 11.3583 33.4728L13.3951 39.1771C12.3518 39.946 11.4633 40.9082 10.7791 42.0131L5.95505 40.9413C5.77182 40.899 5.58305 40.8787 5.39337 40.8787C3.97074 40.8787 2.8133 42.0362 2.8133 43.4588V43.8234C2.8133 44.0813 2.86302 44.3262 2.93392 44.5619H2.8133C1.2903 44.5619 0.0509033 45.8013 0.0509033 47.3243C0.0509033 48.8473 1.2903 50.0867 2.8133 50.0867H2.93392C2.86302 50.3224 2.8133 50.5673 2.8133 50.8252V51.1898C2.8133 52.6124 3.97074 53.7699 5.39337 53.7699C5.58305 53.7699 5.77182 53.7496 5.95321 53.7082L10.7791 52.6355C12.5664 55.5212 15.7514 57.4531 19.3876 57.4531H19.604C20.116 57.4531 20.6344 57.4135 21.1436 57.3352L52.7187 52.478C55.2803 52.083 57.1403 49.9163 57.1403 47.3243C57.1403 45.2516 55.9405 43.468 54.1542 42.6273C56.0621 40.3483 57.1403 37.457 57.1403 34.4801L57.1403 32.5446ZM45.3845 23.7869C48.1331 25.8881 49.7739 29.2352 49.7739 32.7426V36.1247C49.7739 38.0123 49.3034 39.8603 48.4167 41.5095L41.0328 40.3732C40.7289 39.0371 40.566 37.6725 40.566 36.3024V32.5639C40.566 31.6358 40.659 30.7085 40.7999 29.7896C41.0254 29.8089 41.2501 29.8292 41.4868 29.8292C44.112 29.8292 46.0907 28.6413 46.0907 27.0668C46.0907 26.1975 45.4895 25.4259 44.4481 24.9195L44.5834 23.4296C44.8707 23.4876 45.1469 23.6036 45.3845 23.7869L45.3845 23.7869ZM41.3671 15.0964H41.6074C42.5567 15.0964 43.3293 15.869 43.3293 16.8183C43.3293 16.8708 43.3274 16.9233 43.3219 16.9748L42.4858 26.1708L43.1884 26.3964C43.995 26.6543 44.2492 26.994 44.2492 27.0668C44.2492 27.296 43.2694 27.9876 41.4868 27.9876C39.7041 27.9876 38.7244 27.296 38.7244 27.0668C38.7244 26.994 38.9785 26.6543 39.7851 26.3955L40.4877 26.1699L39.6516 16.9748C39.647 16.9223 39.6452 16.8699 39.6452 16.8183C39.6452 15.869 40.4177 15.0964 41.3671 15.0964V15.0964ZM38.3929 23.46L38.5255 24.9195C37.4841 25.4259 36.8828 26.1975 36.8828 27.0668C36.8828 28.0815 37.7106 28.9295 38.9969 29.4084C38.8321 30.4535 38.7244 31.5087 38.7244 32.5639V36.3024C38.7244 37.5675 38.8459 38.8309 39.0816 40.073L33.6535 39.2379C33.358 38.2259 33.1996 37.1827 33.1996 36.1237V32.7416C33.1996 29.2398 34.8828 25.8937 37.7023 23.7924C37.9076 23.6396 38.1443 23.5272 38.3929 23.46ZM28.4418 38.4358C27.9418 37.1707 27.6748 35.8456 27.6748 34.4801V32.5437C27.6748 29.1165 29.3396 25.8421 32.1269 23.7832C32.4768 23.5254 32.9114 23.3836 33.3497 23.3836C33.9058 23.3836 34.4178 23.6073 34.7926 23.9821C32.6213 26.3614 31.358 29.4866 31.358 32.7426V36.1246C31.358 37.074 31.4713 38.0132 31.6766 38.934L28.4418 38.4358ZM28.5284 10.7696L28.696 11.7171L29.6352 11.5081C29.9206 11.4445 30.1831 11.4132 30.4372 11.4132C32.4685 11.4132 34.1204 13.0651 34.1204 15.0964C34.1204 16.0642 33.7447 16.9794 33.0633 17.6737L32.4298 18.3192L33.0633 18.9647C33.7447 19.659 34.1204 20.5742 34.1204 21.542C34.1204 21.5696 34.1149 21.5972 34.1149 21.6258C33.8653 21.576 33.6112 21.542 33.3497 21.542C32.52 21.542 31.6969 21.8118 31.033 22.3026C29.3571 23.5392 28.0376 25.157 27.1426 26.9793C26.7936 25.8927 26.4271 24.8522 26.0496 23.8642C26.9013 19.3652 30.0606 16.7612 30.0928 16.7345L29.5164 16.0172L28.9409 15.2981C28.8129 15.4003 26.3222 17.4343 24.9235 21.1037C23.0073 16.7041 21.1988 13.8579 21.0828 13.6775L19.5331 14.6738C19.558 14.7115 20.9622 16.9205 22.5966 20.437C19.8425 19.4002 16.7127 19.6866 16.5332 19.705L16.7164 21.5374C18.1013 21.3983 22.0239 21.4656 23.8563 23.3357C24.5017 24.9222 25.138 26.6616 25.6997 28.5253C22.9005 27.0898 19.5607 27.0668 19.3876 27.0668V28.9084C19.4309 28.9084 23.5303 28.936 25.9566 30.8651C25.8811 31.4194 25.8332 31.9792 25.8332 32.5446V34.481C25.8332 35.725 26.0247 36.9414 26.3802 38.12L21.1436 37.3143C20.8674 37.272 20.5884 37.2434 20.3084 37.2232C18.2772 37.2232 16.6252 35.5584 16.6252 33.5133C16.6252 33.0842 16.7109 32.644 16.8785 32.203L17.1473 31.4986L16.5092 31.0953C15.4291 30.412 14.7836 29.2509 14.7836 27.9876C14.7836 27.2629 14.9964 26.5603 15.3987 25.9544L15.9724 25.0926L15.0498 24.6239C13.1815 23.6736 12.0213 21.7878 12.0213 19.7004C12.0213 17.2501 13.6676 15.0679 16.0258 14.3929L16.5976 14.229L16.6833 13.6406C16.9457 11.846 18.5046 10.4924 20.3084 10.4924C20.3425 10.4924 20.3756 10.4998 20.4088 10.5044C20.4732 10.5136 20.5386 10.5219 20.604 10.5265L21.2642 10.5799L21.5239 9.97033C22.1049 8.60939 23.4345 7.73003 24.9124 7.73003C26.6969 7.73003 28.2172 9.00809 28.5284 10.7696L28.5284 10.7696ZM12.6704 31.6708H12.0213C9.98998 31.6708 8.33807 30.0188 8.33807 27.9876C8.33807 27.5575 8.4237 27.1174 8.59129 26.6782L8.86108 25.9738L8.22297 25.5705C7.14195 24.8872 6.49647 23.7261 6.49647 22.4628C6.49647 21.7381 6.70918 21.0355 7.11157 20.4297L7.68522 19.5678L6.76258 19.0991C4.89429 18.1488 3.73408 16.263 3.73408 14.1756C3.73408 11.7254 5.38047 9.54307 7.73771 8.86813L8.30952 8.70423L8.39516 8.11584C8.65851 6.3212 10.2174 4.96763 12.0213 4.96763C12.0562 4.96763 12.0903 4.975 12.1244 4.9796C12.187 4.98789 12.2496 4.99618 12.3141 5.0017L12.977 5.05695L13.2376 4.44462C13.8177 3.0846 15.1474 2.20524 16.6252 2.20524C18.4097 2.20524 19.93 3.48331 20.2412 5.24479L20.4088 6.19229L21.348 5.98327C21.6335 5.91974 21.8959 5.88843 22.15 5.88843C22.5736 5.88843 22.976 5.98143 23.3609 6.11587C22.0073 6.51181 20.8416 7.41051 20.1261 8.65358C17.6878 8.73553 15.5801 10.4565 14.9761 12.8009C12.1253 13.8644 10.1797 16.624 10.1797 19.7004C10.1797 22.1672 11.3933 24.4222 13.4015 25.785C13.0986 26.4765 12.9421 27.2242 12.9421 27.9876C12.9421 29.645 13.6787 31.1855 14.9429 32.2297C14.8371 32.6569 14.7836 33.086 14.7836 33.5123C14.7836 35.1302 15.4798 36.5841 16.582 37.5988C16.035 37.7572 15.5092 37.9626 15.0046 38.2066L12.6704 31.6708ZM4.65488 43.8234V43.4588C4.65488 42.9966 5.10239 42.6402 5.5545 42.7378L9.93657 43.712C9.82976 43.9901 9.734 44.2728 9.65205 44.5619H5.39336C4.98637 44.5619 4.65488 44.2304 4.65488 43.8234ZM1.89249 47.3243C1.89249 46.8169 2.30593 46.4035 2.81329 46.4035H5.39336H9.30491C9.2782 46.7074 9.25887 47.0131 9.25887 47.3243C9.25887 47.6355 9.2782 47.9412 9.30583 48.2451H5.39336H2.81328C2.30593 48.2451 1.89249 47.8317 1.89249 47.3243H1.89249ZM5.55266 51.9108C5.1162 52.0047 4.65488 51.6511 4.65488 51.1898V50.8252C4.65488 50.4182 4.98637 50.0867 5.39336 50.0867H9.65112C9.73308 50.3758 9.82976 50.6585 9.93565 50.9366L5.55266 51.9108ZM55.2987 47.3243C55.2987 49.0011 54.0962 50.4025 52.4396 50.6576L20.8655 55.5148C20.4475 55.5793 20.023 55.6115 19.604 55.6115H19.3876C14.8186 55.6115 11.1005 51.8933 11.1005 47.3243C11.1005 42.7553 14.8186 39.0371 19.3876 39.0371H19.604C20.023 39.0371 20.4475 39.0694 20.8646 39.1329L52.4387 43.9901C54.0962 44.2461 55.2987 45.6475 55.2987 47.3243ZM55.2987 34.4801C55.2987 37.3125 54.1523 40.0528 52.1579 42.084L50.3283 41.8023C51.1689 40.0362 51.6155 38.0998 51.6155 36.1237V32.7416C51.6155 29.4691 50.3688 26.3283 48.227 23.9453C48.599 23.5944 49.0926 23.3836 49.6239 23.3836C50.0631 23.3836 50.4968 23.5254 50.8467 23.785C53.6339 25.8421 55.2987 29.1174 55.2987 32.5446L55.2987 34.4801Z" fill="#F94A23"/>
  <path d="M18.4669 42.7203H20.3085V51.9283H18.4669V42.7203Z" fill="#F94A23"/>
  <path d="M25.8332 42.7203H27.6748V51.9283H25.8332V42.7203Z" fill="#F94A23"/>
  <path d="M33.1996 42.7203H35.0412V51.9283H33.1996V42.7203Z" fill="#F94A23"/>
  <path d="M40.566 44.5619H42.4076V50.0867H40.566V44.5619Z" fill="#F94A23"/>
  <path d="M47.9324 45.4827H49.774V49.1659H47.9324V45.4827Z" fill="#F94A23"/>
</svg>