<svg xmlns="http://www.w3.org/2000/svg" width="30" height="39" viewBox="0 0 30 39" fill="none">
  <path d="M15.0165 0C7.22834 0 0.892212 6.33614 0.892212 14.1243C0.892212 23.7896 13.5321 37.9788 14.0703 38.5781C14.5757 39.1411 15.4583 39.1401 15.9628 38.5781C16.501 37.9788 29.1409 23.7896 29.1409 14.1243C29.1407 6.33614 22.8047 0 15.0165 0ZM15.0165 21.2306C11.0981 21.2306 7.91032 18.0427 7.91032 14.1243C7.91032 10.2058 11.0982 7.01803 15.0165 7.01803C18.9349 7.01803 22.1227 10.2059 22.1227 14.1243C22.1227 18.0428 18.9349 21.2306 15.0165 21.2306Z" fill="#7CB93C"/>
</svg>