<svg xmlns="http://www.w3.org/2000/svg" width="36" height="25" viewBox="0 0 36 25" fill="none">
  <path d="M24.1279 12.7798L35.9999 20.4709V4.76392L24.1279 12.7798Z" fill="#7CB93C"/>
  <path d="M0.784363 4.76392V20.4709L12.6564 12.7798L0.784363 4.76392Z" fill="#7CB93C"/>
  <path d="M33.799 0.189941H2.98533C1.88705 0.189941 1.01546 1.02896 0.850388 2.10933L18.3922 13.9528L35.9339 2.10933C35.7689 1.02896 34.8973 0.189941 33.799 0.189941Z" fill="#7CB93C"/>
  <path d="M22.1118 14.1422L18.9974 16.2442C18.8125 16.3683 18.6035 16.4292 18.3922 16.4292C18.1809 16.4292 17.9718 16.3683 17.7869 16.2442L14.6725 14.1399L0.854782 23.0963C1.02426 24.1677 1.89144 24.9999 2.98533 24.9999H33.799C34.8929 24.9999 35.7601 24.1677 35.9295 23.0963L22.1118 14.1422Z" fill="#7CB93C"/>
</svg>