<svg xmlns="http://www.w3.org/2000/svg" width="30" height="29" viewBox="0 0 30 29" fill="none">
  <path d="M26.7294 18.8786C24.9685 18.8786 23.2395 18.6032 21.6011 18.0618C20.7983 17.7879 19.8113 18.0391 19.3213 18.5424L16.0874 20.9837C12.3369 18.9817 10.0267 16.6722 8.05207 12.9499L10.4215 9.80025C11.0371 9.18547 11.2579 8.28742 10.9934 7.4448C10.4496 5.79776 10.1734 4.0696 10.1734 2.30796C10.1734 1.03534 9.13811 0 7.86557 0H2.58364C1.31109 0 0.275757 1.03534 0.275757 2.30788C0.275757 16.8946 12.1427 28.7615 26.7294 28.7615C28.002 28.7615 29.0373 27.7261 29.0373 26.4536V21.1864C29.0372 19.9139 28.0019 18.8786 26.7294 18.8786Z" fill="#7CB93C"/>
</svg>